<?xml version="1.0" standalone="no"?>
<!DOCTYPE svg PUBLIC "-//W3C//DTD SVG 20010904//EN"
 "http://www.w3.org/TR/2001/REC-SVG-20010904/DTD/svg10.dtd">
<svg version="1.0" xmlns="http://www.w3.org/2000/svg"
 width="233.000000pt" height="333.000000pt" viewBox="0 0 233.000000 333.000000"
 preserveAspectRatio="xMidYMid meet">

<g transform="translate(0.000000,333.000000) scale(0.100000,-0.100000)"
fill="#000000" stroke="none">
<path d="M904 3039 c-3 -5 -10 -7 -15 -4 -5 4 -15 3 -21 -2 -7 -4 -26 -8 -42
-9 -16 -1 -33 -8 -38 -17 -5 -9 -15 -14 -23 -11 -8 4 -15 1 -15 -6 0 -6 4 -8
10 -5 6 3 7 -1 3 -10 -4 -11 -8 -13 -13 -6 -4 8 -15 8 -38 0 -18 -6 -29 -15
-26 -20 3 -5 -2 -6 -10 -3 -9 3 -16 1 -16 -5 0 -6 -3 -10 -7 -9 -14 4 -54 -23
-48 -31 3 -5 -3 -17 -13 -28 -9 -10 -15 -14 -12 -8 3 6 -3 2 -12 -8 -10 -11
-16 -23 -13 -28 3 -4 -4 -6 -15 -4 -11 2 -18 0 -15 -6 4 -5 1 -9 -6 -9 -6 0
-9 -8 -6 -20 3 -12 1 -17 -5 -14 -9 6 -28 -13 -50 -51 -10 -17 -9 -18 4 -8 12
10 15 10 15 -2 0 -7 -3 -14 -6 -13 -22 2 -32 -4 -27 -17 3 -8 2 -15 -3 -15
-15 0 -40 -65 -46 -116 -13 -113 -14 -195 -2 -187 8 5 8 2 -1 -9 -8 -10 -10
-23 -4 -39 5 -13 10 -46 11 -74 1 -27 4 -52 7 -54 3 -3 21 -5 41 -5 20 0 31
-2 25 -4 -8 -2 -9 -9 -2 -22 7 -13 7 -21 0 -25 -5 -3 -10 -11 -10 -16 0 -6 4
-8 8 -5 5 3 9 -2 9 -10 0 -13 -2 -13 -16 0 -11 12 -12 19 -4 27 14 14 6 39
-12 39 -7 0 -16 -7 -19 -16 -5 -12 -2 -15 10 -10 14 5 15 4 5 -8 -11 -13 0
-66 14 -66 4 0 3 5 -1 12 -5 7 -3 8 5 4 7 -5 10 -15 7 -23 -4 -9 -1 -22 5 -29
6 -8 9 -14 5 -14 -3 0 5 -18 20 -41 14 -23 20 -38 12 -33 -10 6 -10 4 1 -9 19
-24 29 -21 26 6 -2 15 2 24 11 24 10 0 11 -4 3 -13 -6 -7 -8 -18 -4 -24 3 -5
-1 -13 -9 -16 -9 -3 -13 -10 -10 -15 3 -5 10 -7 15 -4 5 4 9 -2 9 -12 0 -19
44 -73 59 -73 5 0 7 -8 4 -18 -2 -10 3 -24 11 -31 13 -11 17 -11 22 3 3 9 3
23 0 32 -4 9 -2 12 5 8 6 -3 8 -20 5 -38 -3 -18 0 -38 7 -46 14 -19 43 -19 39
-1 -1 7 2 9 8 6 8 -5 6 -13 -5 -25 -15 -16 -14 -18 2 -24 10 -4 19 -7 21 -6 1
0 14 -13 28 -30 14 -16 32 -30 39 -30 8 0 22 -8 31 -17 17 -17 18 -17 11 2 -6
17 -4 17 13 -4 15 -17 33 -24 66 -27 25 -1 49 -6 53 -9 3 -4 -3 -6 -14 -5 -11
1 -24 2 -30 1 -13 -1 55 -47 80 -54 14 -3 15 -5 4 -6 -9 0 -24 -16 -32 -33
-16 -32 -14 -55 2 -29 7 11 10 11 14 0 4 -12 7 -11 16 1 7 10 11 11 11 3 0 -8
14 -13 35 -13 38 0 40 2 24 31 -6 13 -16 18 -26 15 -13 -5 -14 -4 -3 9 7 8 9
15 5 15 -20 0 92 70 115 72 17 1 39 21 34 30 -4 6 -3 8 4 4 13 -8 82 23 82 37
0 5 -6 5 -13 -1 -9 -8 -17 -8 -27 0 -13 8 -12 9 2 5 9 -3 19 -3 23 1 3 4 14 7
23 7 10 0 16 7 16 17 -1 10 2 15 7 12 11 -6 41 21 32 30 -6 6 12 10 30 7 5 -1
6 3 2 9 -3 5 1 13 9 16 10 4 14 15 12 29 -3 18 -1 22 10 18 8 -3 21 0 29 7 12
10 13 16 3 28 -9 10 -9 13 -1 9 14 -9 74 64 76 92 0 11 6 19 11 18 5 -1 11 7
13 18 3 11 7 27 10 35 3 8 7 21 7 28 1 7 7 16 14 21 8 5 13 10 12 12 -1 2 3
17 9 32 6 16 8 33 5 39 -4 6 -2 8 3 5 6 -4 13 3 16 14 4 16 2 19 -11 15 -10
-3 -8 1 6 10 12 9 22 22 22 28 0 7 -4 6 -9 -2 -7 -11 -9 -10 -14 3 -4 9 -3 13
3 10 6 -3 10 -1 10 5 0 6 4 9 9 6 4 -3 7 6 5 19 -1 14 3 25 9 25 7 0 5 5 -3
10 -8 5 -10 10 -5 10 11 0 12 10 13 125 2 118 -1 136 -17 130 -10 -4 -11 -2
-3 8 14 16 10 40 -8 63 -9 11 -10 15 -2 10 18 -11 15 2 -10 37 -12 17 -16 27
-7 22 7 -4 3 4 -11 20 -14 16 -19 25 -11 20 7 -4 3 6 -9 23 -13 17 -27 29 -32
26 -5 -3 -8 -2 -7 3 4 21 -2 34 -13 27 -7 -5 -8 -3 -3 5 11 18 -140 161 -170
161 -4 0 -4 -4 -1 -9 4 -5 -1 -8 -10 -7 -19 3 -35 26 -27 40 3 5 1 6 -5 2 -7
-4 -12 -3 -12 2 0 5 -20 16 -45 25 -43 14 -46 13 -56 -4 -5 -11 -15 -19 -22
-19 -8 0 -8 3 2 9 8 5 10 14 6 21 -6 9 -4 11 5 5 9 -6 11 -4 5 4 -4 7 -16 11
-26 8 -11 -3 -19 0 -19 6 0 7 -5 5 -10 -3 -5 -8 -10 -10 -10 -5 0 14 -218 17
-226 4z m55 -22 c0 -9 -2 -9 -5 0 -3 7 -13 9 -22 6 -14 -4 -14 -3 -2 5 16 12
30 7 29 -11z m-150 -35 c-7 -3 -20 -10 -28 -16 -12 -9 -12 -8 -1 11 8 13 20
19 29 15 13 -5 13 -6 0 -10z m495 -42 c-6 -6 -10 -3 -10 10 0 13 4 16 10 10 7
-7 7 -13 0 -20z m-577 14 c-3 -3 -12 -4 -19 -1 -8 3 -5 6 6 6 11 1 17 -2 13
-5z m153 -39 c-4 -22 -19 -65 -35 -95 -16 -30 -28 -61 -26 -68 1 -7 -7 -28
-18 -46 -12 -18 -21 -41 -21 -50 0 -14 -38 -144 -58 -196 -3 -8 -6 -18 -6 -22
-1 -3 -4 -10 -8 -14 -19 -19 -4 -101 19 -106 13 -3 12 -6 -3 -23 -11 -12 -15
-15 -10 -8 5 8 6 16 3 19 -3 3 -11 -4 -17 -16 -6 -12 -9 -24 -6 -27 3 -3 -4
-23 -15 -45 -22 -44 -28 -44 -35 -2 -3 22 -2 25 6 14 8 -13 10 -13 10 2 0 9
-4 19 -10 23 -6 4 -5 14 1 29 7 16 8 34 1 60 -6 20 -7 34 -3 32 12 -8 9 57 -3
73 -9 12 -8 13 3 6 11 -6 13 -4 8 8 -3 10 -2 17 4 17 6 0 8 4 5 8 -10 17 -15
112 -5 117 5 3 6 -2 3 -12 -5 -17 -5 -17 6 -1 8 13 8 23 0 37 -15 28 -12 38 4
15 14 -18 15 -18 21 11 3 17 13 45 21 64 8 18 13 35 11 38 -3 2 1 24 9 49 7
24 12 44 10 44 -1 0 -25 -33 -52 -72 -27 -40 -52 -77 -57 -83 -4 -5 -39 -55
-78 -110 -38 -55 -74 -102 -80 -104 -14 -5 -1 63 24 124 30 73 88 154 158 224
34 34 66 61 70 61 4 0 15 8 25 17 13 13 19 14 22 5 2 -6 8 -12 13 -12 4 0 6 6
3 14 -3 8 0 17 6 21 9 6 9 10 -1 16 -9 5 6 8 37 7 l50 -2 -6 -41z m92 23 c-2
-10 2 -18 9 -18 8 0 8 -5 -2 -16 -11 -13 -8 -19 18 -40 45 -35 50 -68 16 -101
-18 -16 -21 -24 -10 -20 11 4 17 1 17 -9 0 -8 -4 -12 -10 -9 -5 3 -10 1 -10
-4 0 -6 -7 -11 -16 -11 -8 0 -12 5 -9 10 3 6 1 10 -5 10 -6 0 -10 -8 -8 -17 2
-13 -5 -17 -36 -16 -43 1 -53 11 -61 68 -6 37 5 78 35 125 5 8 11 28 15 43 5
24 10 28 33 25 19 -2 26 -8 24 -20z m101 15 c-13 -2 -35 -2 -50 0 -16 2 -5 4
22 4 28 0 40 -2 28 -4z m64 1 c-3 -3 -12 -4 -19 -1 -8 3 -5 6 6 6 11 1 17 -2
13 -5z m-504 -55 c-8 -8 -13 -7 -18 2 -5 8 -4 10 3 5 7 -4 12 -2 12 5 0 7 3 9
7 6 4 -4 2 -12 -4 -18z m565 -44 c-3 -3 -9 2 -12 12 -6 14 -5 15 5 6 7 -7 10
-15 7 -18z m50 -60 c-3 -3 -9 2 -12 12 -6 14 -5 15 5 6 7 -7 10 -15 7 -18z
m-694 7 c2 -4 -5 -9 -17 -9 -17 -2 -19 0 -7 7 18 12 18 12 24 2z m703 -49 c1
-22 -1 -24 -8 -10 -6 9 -7 22 -4 27 9 14 10 13 12 -17z m-200 -9 c-3 -3 -12
-4 -19 -1 -8 3 -5 6 6 6 11 1 17 -2 13 -5z m-601 -108 c0 -14 -4 -22 -8 -20
-5 3 -6 10 -3 15 4 5 1 9 -4 9 -6 0 -11 -8 -12 -17 0 -12 -2 -13 -6 -5 -5 13
13 42 26 42 4 0 7 -11 7 -24z m1159 5 c3 -5 2 -12 -3 -15 -5 -3 -9 1 -9 9 0
17 3 19 12 6z m-468 -15 c-3 -7 -1 -18 5 -24 7 -7 6 -17 -4 -31 -13 -19 -16
-19 -43 -5 -16 8 -32 17 -34 20 -7 7 55 49 78 53 2 1 1 -5 -2 -13z m-135 -13
c10 -9 18 -27 18 -39 0 -17 4 -22 15 -18 8 4 15 1 15 -5 0 -6 -6 -11 -12 -11
-7 0 -30 -3 -50 -6 -36 -6 -37 -6 -33 27 3 37 14 69 23 69 3 0 14 -7 24 -17z
m163 -11 c-8 -8 -25 10 -19 20 4 6 9 5 15 -3 4 -7 6 -15 4 -17z m58 -9 c-5
-12 -2 -15 10 -10 9 3 17 3 17 -2 0 -5 18 -11 40 -15 34 -5 40 -10 41 -31 1
-14 2 -31 3 -37 1 -7 -2 -22 -8 -33 -5 -11 -11 -28 -13 -38 -2 -10 -10 -29
-19 -42 -11 -16 -12 -25 -5 -25 9 0 9 -5 1 -21 -10 -17 -14 -18 -28 -7 -14 11
-15 11 -9 -6 6 -15 5 -17 -6 -7 -16 12 -117 26 -117 15 0 -4 7 -12 15 -18 13
-9 13 -15 3 -39 -7 -15 -18 -25 -25 -22 -7 2 -15 0 -18 -5 -4 -6 -11 -10 -17
-10 -7 0 0 12 14 28 20 21 24 32 18 48 -9 24 -32 43 -28 23 2 -6 -3 -14 -11
-16 -21 -8 -4 39 22 59 12 10 31 27 43 38 11 11 30 22 42 25 34 6 85 51 87 75
1 17 -7 26 -32 36 -22 9 -33 21 -33 34 0 11 4 20 10 20 5 0 6 -8 3 -17z m404
-18 c0 -8 -6 -16 -14 -19 -11 -4 -11 -1 -3 14 13 24 17 25 17 5z m-460 -57
c-3 -8 -6 -5 -6 6 -1 11 2 17 5 13 3 -3 4 -12 1 -19z m460 -60 c-3 -8 -6 -5
-6 6 -1 11 2 17 5 13 3 -3 4 -12 1 -19z m-270 -30 c-3 -7 -5 -2 -5 12 0 14 2
19 5 13 2 -7 2 -19 0 -25z m0 -75 c-3 -10 -5 -4 -5 12 0 17 2 24 5 18 2 -7 2
-21 0 -30z m-172 -43 c3 -5 1 -10 -4 -10 -6 0 -11 5 -11 10 0 6 2 10 4 10 3 0
8 -4 11 -10z m-417 -25 c-4 -20 -3 -23 8 -14 11 9 14 7 14 -9 0 -25 -25 -48
-35 -32 -8 12 2 80 12 80 3 0 3 -11 1 -25z m507 5 c3 -5 2 -10 -4 -10 -5 0
-13 5 -16 10 -3 6 -2 10 4 10 5 0 13 -4 16 -10z m-290 -41 c12 -14 13 -19 4
-11 -14 10 -17 9 -22 -7 -2 -11 -1 -23 3 -28 4 -4 12 -30 18 -56 9 -44 9 -47
-7 -33 -9 8 -37 17 -63 21 -57 9 -67 33 -12 26 19 -2 24 40 8 63 -16 23 -19
40 -5 32 5 -3 11 4 14 15 4 16 9 19 24 11 10 -6 27 -21 38 -33z m255 10 c0
-10 -12 -11 -34 -3 -9 3 -14 10 -11 14 6 10 45 1 45 -11z m-504 -41 c3 -4 2
-32 -1 -62 -8 -62 -33 -89 -61 -65 -8 6 -14 8 -15 3 -1 -12 -21 37 -24 57 -1
9 4 16 11 16 7 0 11 -4 8 -9 -3 -4 2 -15 11 -24 22 -23 41 -4 26 25 -16 29 -4
71 20 68 10 -2 21 -6 25 -9z m120 -65 c-10 -10 -19 5 -10 18 6 11 8 11 12 0 2
-7 1 -15 -2 -18z m-13 -65 c-7 -14 21 -20 31 -6 13 17 36 12 36 -8 0 -8 -10
-14 -25 -14 -18 0 -23 -4 -18 -16 4 -12 14 -14 42 -10 70 12 86 12 86 -4 0
-17 -60 -50 -91 -50 -13 0 -27 12 -38 33 -34 64 -43 77 -49 70 -4 -3 -7 -1 -7
5 0 7 -5 11 -11 10 -6 -2 -14 3 -17 11 -3 10 0 12 11 8 12 -4 14 -2 10 10 -4
9 4 6 19 -8 13 -13 23 -27 21 -31z m2 43 c3 -5 1 -12 -5 -16 -5 -3 -10 1 -10
9 0 18 6 21 15 7z m85 -23 c0 -4 -4 -8 -9 -8 -6 0 -12 4 -15 8 -3 5 1 9 9 9 8
0 15 -4 15 -9z m24 -3 c-4 -8 -8 -15 -10 -15 -2 0 -4 7 -4 15 0 8 4 15 10 15
5 0 7 -7 4 -15z m186 5 c12 -8 11 -10 -7 -10 -13 0 -23 5 -23 10 0 13 11 13
30 0z m-325 -84 l40 -39 -42 21 c-46 24 -88 75 -77 94 5 8 12 4 23 -13 9 -13
34 -41 56 -63z m542 22 c-2 -13 -4 -5 -4 17 -1 22 1 32 4 23 2 -10 2 -28 0
-40z m-209 12 c40 -24 41 -31 3 -20 -25 7 -29 5 -28 -10 1 -10 7 -16 14 -13 7
3 25 -3 41 -13 27 -19 32 -21 64 -23 30 -2 70 -45 74 -80 2 -19 10 -41 16 -49
11 -13 14 -10 19 19 5 31 6 30 10 -17 3 -42 1 -51 -11 -49 -8 2 -18 4 -23 4
-4 1 -12 11 -17 24 -13 27 -63 113 -72 122 -7 8 10 -73 19 -88 17 -27 11 -58
-13 -67 -25 -10 -33 -22 -11 -17 6 1 11 -6 11 -15 -2 -19 3 -21 52 -18 18 1
36 -6 45 -16 13 -16 12 -16 -8 -4 -19 12 -25 12 -45 -5 -16 -14 -19 -15 -10
-3 12 14 11 17 -5 17 -43 1 -51 5 -45 19 3 9 -4 6 -17 -7 -12 -12 -26 -19 -31
-16 -4 3 -11 39 -15 80 -9 95 -28 95 -29 2 -1 -47 3 -67 11 -67 7 0 13 -4 13
-10 0 -6 -9 -6 -22 -1 -13 4 -29 7 -36 5 -7 -1 -8 0 -2 3 11 5 12 101 0 183
-4 30 -8 49 -9 42 0 -7 -6 -10 -12 -7 -6 4 -7 14 -3 24 4 9 6 27 5 40 -1 17 3
22 15 17 12 -4 14 -1 9 14 -8 25 1 25 43 0z m-495 -27 c-3 -7 -10 -10 -16 -6
-8 5 -8 8 0 10 7 3 9 12 6 21 -4 14 -3 14 5 3 6 -8 8 -20 5 -28z m895 -3 c-7
-11 -14 -16 -16 -10 -2 6 -8 8 -13 4 -5 -3 -9 -3 -9 1 0 4 31 20 48 24 1 1 -3
-8 -10 -19z m-191 -67 c-3 -10 -5 -2 -5 17 0 19 2 27 5 18 2 -10 2 -26 0 -35z
m-714 -8 c-3 -9 -8 -14 -10 -11 -3 3 -2 9 2 15 9 16 15 13 8 -4z m817 -79 c0
-2 -7 -7 -16 -10 -8 -3 -12 -2 -9 4 6 10 25 14 25 6z m-812 -47 c-3 -8 -7 -3
-11 10 -4 17 -3 21 5 13 5 -5 8 -16 6 -23z m209 -6 c-3 -10 -5 -4 -5 12 0 17
2 24 5 18 2 -7 2 -21 0 -30z m109 -28 c-12 -29 -13 -41 -5 -52 9 -11 9 -12 -4
-8 -22 9 -27 40 -11 71 8 15 12 35 9 43 -5 14 -4 14 10 0 15 -15 15 -19 1 -54z
m400 -31 c1 -9 0 -13 -4 -10 -3 4 -7 14 -8 22 -1 9 0 13 4 10 3 -4 7 -14 8
-22z m-636 -18 c0 -7 -60 -12 -70 -6 -6 4 7 7 30 8 22 1 40 0 40 -2z m80 0 c0
-2 -16 -6 -35 -8 -19 -2 -35 0 -35 4 0 4 16 8 35 8 19 0 35 -2 35 -4z m60 0
c0 -2 -11 -6 -25 -8 -13 -3 -22 -1 -19 3 5 9 44 13 44 5z m45 -14 c-3 -3 -11
0 -18 7 -9 10 -8 11 6 5 10 -3 15 -9 12 -12z m116 7 c-14 -5 -28 -6 -33 -1 -4
4 7 9 25 9 30 2 31 2 8 -8z m289 -17 c0 -4 -10 -13 -22 -21 -23 -14 -23 -14
-4 8 20 22 26 25 26 13z m-485 -92 c3 -6 -1 -7 -9 -4 -9 3 -16 1 -16 -6 0 -6
-5 -8 -11 -4 -8 4 -7 9 2 15 18 11 26 11 34 -1z m32 -27 c1 -22 -1 -24 -8 -10
-6 9 -7 22 -4 27 9 14 10 13 12 -17z m156 -50 c-7 -2 -19 -2 -25 0 -7 3 -2 5
12 5 14 0 19 -2 13 -5z m37 -113 c0 -5 -5 -10 -11 -10 -5 0 -7 5 -4 10 3 6 8
10 11 10 2 0 4 -4 4 -10z"/>
<path d="M950 2760 c0 -5 5 -10 11 -10 5 0 7 5 4 10 -3 6 -8 10 -11 10 -2 0
-4 -4 -4 -10z"/>
<path d="M1305 2519 c-9 -14 -2 -20 14 -10 8 6 9 11 3 15 -6 3 -14 1 -17 -5z"/>
<path d="M1314 2482 c-15 -10 -64 -77 -64 -87 0 -5 18 10 41 33 22 24 39 47
37 52 -2 5 -8 6 -14 2z"/>
<path d="M947 2171 c-3 -11 -1 -23 3 -26 14 -8 22 13 12 31 -8 14 -10 14 -15
-5z"/>
<path d="M1136 1968 c3 -18 10 -42 15 -53 8 -19 8 -19 8 1 1 36 -11 84 -21 84
-6 0 -7 -14 -2 -32z"/>
<path d="M1331 2964 c0 -11 3 -14 6 -6 3 7 2 16 -1 19 -3 4 -6 -2 -5 -13z"/>
<path d="M1190 1206 c0 -2 8 -10 18 -17 15 -13 16 -12 3 4 -13 16 -21 21 -21
13z"/>
<path d="M1312 860 c0 -14 2 -19 5 -12 2 6 2 18 0 25 -3 6 -5 1 -5 -13z"/>
<path d="M1232 590 c0 -14 2 -19 5 -12 2 6 2 18 0 25 -3 6 -5 1 -5 -13z"/>
<path d="M1231 494 c0 -11 3 -14 6 -6 3 7 2 16 -1 19 -3 4 -6 -2 -5 -13z"/>
<path d="M1368 403 c7 -3 16 -2 19 1 4 3 -2 6 -13 5 -11 0 -14 -3 -6 -6z"/>
<path d="M1550 316 c0 -2 8 -10 18 -17 15 -13 16 -12 3 4 -13 16 -21 21 -21
13z"/>
<path d="M1650 200 c6 -11 13 -20 16 -20 2 0 0 9 -6 20 -6 11 -13 20 -16 20
-2 0 0 -9 6 -20z"/>
</g>
</svg>
